# xmcd
# 
# Track frame offsets:
#     150
#     13073
#     25762
#     50989
#     75352
#     91998
#     117392
#     132366
# 
# Disc length: 2016
# 
# Revision: 0
# Processed by: cddbd v1.5.2PL0 Copyright (c) Steve Scherf et al.
# Submitted via: fre:ac v1.0.17
# 
DISCID=6107de08
DTITLE=Marek Grechuta - Droga Za Widnokres
DYEAR=1972
DGENRE=Progressive Rock
TTITLE0=Jeszcze Pozyjemy
TTITLE1=Gdziekolwiek 
TTITLE2=Moze Uslyszysz Wolanie O Pomoc
TTITLE3=Wedrowka 
TTITLE4=Krajobraz Z Wilgq I Ludzie
TTITLE5=Pewnosc
TTITLE6=Gdzies W Nas
TTITLE7=Droga Za Widnokres
EXTD=
EXTT0=
EXTT1=
EXTT2=
EXTT3=
EXTT4=
EXTT5=
EXTT6=
EXTT7=
PLAYORDER=
